<svg width="1106" height="550" viewBox="0 0 1106 550" fill="none" xmlns="http://www.w3.org/2000/svg">
<rect width="1106" height="550" rx="60" fill="#2395FF"/>
<path d="M62.9307 538.279C67.8369 545.583 74.7274 549.727 81.9382 549.716L183.921 549.524C191.969 549.509 199.901 546.904 207.076 541.92L434.385 384.244C455.275 369.753 474.001 349.067 486.743 321.974C501.047 291.561 502.602 269.551 496.954 254.002C491.321 238.443 477.626 227.016 451.447 224.688C428.127 222.617 404.932 231.01 384.042 245.491L307.082 298.876L136.226 211.243C134.172 209.352 131.785 208.244 129.313 208.036C126.841 207.828 124.373 208.526 122.164 210.058L70.7977 245.694C62.462 251.471 60.4464 266.678 66.7588 276.161L188.803 380.923L108.172 436.86L51.6497 397.913C49.7023 396.571 47.5514 395.874 45.3706 395.878C43.1898 395.881 41.0401 396.586 39.0952 397.935L7.74426 419.688C-0.411833 425.348 -2.56023 440.106 3.39278 449.675L62.9307 538.279Z" fill="#41A4FF"/>
</svg>
